<?xml version="1.0" encoding="utf-8"?>
<!-- Generator: Adobe Illustrator 19.2.1, SVG Export Plug-In . SVG Version: 6.00 Build 0)  -->
<svg version="1.1" id="Layer_1" xmlns="http://www.w3.org/2000/svg" xmlns:xlink="http://www.w3.org/1999/xlink" x="0px" y="0px"
	 viewBox="0 0 200 100" style="enable-background:new 0 0 200 100;" xml:space="preserve">
<style type="text/css">
	.st0{fill:#FFFFFF;}
</style>
<g>
	<path class="st0" d="M7.5,8l0.4,10.8l0.4,10.8L9,51.2c0.1,3.6,0,7.2,0,10.8v10.8v21.6L7.5,93h186l-1.5,1.5V72.9V62.1
		c0-3.6-0.1-7.2,0.1-10.8l0.7-21.6c0.2-7.2,0.5-14.4,0.8-21.6c0.3,7.2,0.5,14.4,0.8,21.6l0.7,21.6c0.2,3.6,0,7.2,0.1,10.8v10.8v21.6
		l-1.5,1.5H7.5L6,94.5V72.9V62.1c0-3.6-0.1-7.2,0-10.8l0.7-21.6l0.4-10.8L7.5,8z"/>
</g>
<g>
	<line class="st0" x1="7" y1="83" x2="17" y2="83"/>
	<path class="st0" d="M7,83c0,0,0.2-0.2,0.4-0.4c0.1-0.1,0.3-0.3,0.5-0.4C8,82.2,8.1,82.1,8.2,82c0.1-0.1,0.2,0,0.3,0
		c0.9,0,2.2,0,3.4,0s2.5,0,3.4,0c0.1,0,0.2-0.1,0.3,0c0.1,0.1,0.2,0.2,0.3,0.2c0.2,0.1,0.4,0.3,0.5,0.4C16.8,82.8,17,83,17,83
		s-0.2,0.2-0.4,0.4c-0.1,0.1-0.3,0.2-0.5,0.4c-0.1,0.1-0.2,0.1-0.3,0.2c-0.1,0.1-0.2,0-0.3,0c-0.9,0-2.2,0-3.4,0s-2.5,0-3.4,0
		c-0.1,0-0.2,0.1-0.3,0c-0.1-0.1-0.2-0.2-0.3-0.2c-0.2-0.1-0.4-0.3-0.5-0.4C7.2,83.2,7,83,7,83z"/>
</g>
<g>
	<line class="st0" x1="7" y1="71" x2="17" y2="71"/>
	<path class="st0" d="M7,71c0,0,0.2-0.2,0.4-0.4c0.1-0.1,0.3-0.3,0.5-0.4C8,70.2,8.1,70.1,8.2,70c0.1-0.1,0.2,0,0.3,0
		c0.9,0,2.2,0,3.4,0s2.5,0,3.4,0c0.1,0,0.2-0.1,0.3,0c0.1,0.1,0.2,0.2,0.3,0.2c0.2,0.1,0.4,0.3,0.5,0.4C16.8,70.8,17,71,17,71
		s-0.2,0.2-0.4,0.4c-0.1,0.1-0.3,0.2-0.5,0.4c-0.1,0.1-0.2,0.1-0.3,0.2c-0.1,0.1-0.2,0-0.3,0c-0.9,0-2.2,0-3.4,0s-2.5,0-3.4,0
		c-0.1,0-0.2,0.1-0.3,0c-0.1-0.1-0.2-0.2-0.3-0.2c-0.2-0.1-0.4-0.3-0.5-0.4C7.2,71.2,7,71,7,71z"/>
</g>
<g>
	<line class="st0" x1="7" y1="59" x2="17" y2="59"/>
	<path class="st0" d="M7,59c0,0,0.2-0.2,0.4-0.4c0.1-0.1,0.3-0.3,0.5-0.4C8,58.2,8.1,58.1,8.2,58c0.1-0.1,0.2,0,0.3,0
		c0.9,0,2.2,0,3.4,0s2.5,0,3.4,0c0.1,0,0.2-0.1,0.3,0c0.1,0.1,0.2,0.2,0.3,0.2c0.2,0.1,0.4,0.3,0.5,0.4C16.8,58.8,17,59,17,59
		s-0.2,0.2-0.4,0.4c-0.1,0.1-0.3,0.2-0.5,0.4c-0.1,0.1-0.2,0.1-0.3,0.2c-0.1,0.1-0.2,0-0.3,0c-0.9,0-2.2,0-3.4,0s-2.5,0-3.4,0
		c-0.1,0-0.2,0.1-0.3,0c-0.1-0.1-0.2-0.2-0.3-0.2c-0.2-0.1-0.4-0.3-0.5-0.4C7.2,59.2,7,59,7,59z"/>
</g>
<g>
	<line class="st0" x1="7" y1="47" x2="17" y2="47"/>
	<path class="st0" d="M7,47c0,0,0.2-0.2,0.4-0.4c0.1-0.1,0.3-0.3,0.5-0.4C8,46.2,8.1,46.1,8.2,46c0.1-0.1,0.2,0,0.3,0
		c0.9,0,2.2,0,3.4,0s2.5,0,3.4,0c0.1,0,0.2-0.1,0.3,0c0.1,0.1,0.2,0.2,0.3,0.2c0.2,0.1,0.4,0.3,0.5,0.4C16.8,46.8,17,47,17,47
		s-0.2,0.2-0.4,0.4c-0.1,0.1-0.3,0.2-0.5,0.4c-0.1,0.1-0.2,0.1-0.3,0.2c-0.1,0.1-0.2,0-0.3,0c-0.9,0-2.2,0-3.4,0s-2.5,0-3.4,0
		c-0.1,0-0.2,0.1-0.3,0c-0.1-0.1-0.2-0.2-0.3-0.2c-0.2-0.1-0.4-0.3-0.5-0.4C7.2,47.2,7,47,7,47z"/>
</g>
<g>
	<line class="st0" x1="184" y1="83" x2="194" y2="83"/>
	<path class="st0" d="M184,83c0,0,0.2-0.2,0.4-0.4c0.1-0.1,0.3-0.3,0.5-0.4c0.1-0.1,0.2-0.1,0.3-0.2c0.1-0.1,0.2,0,0.3,0
		c0.9,0,2.2,0,3.4,0s2.5,0,3.4,0c0.1,0,0.2-0.1,0.3,0c0.1,0.1,0.2,0.2,0.3,0.2c0.2,0.1,0.4,0.3,0.5,0.4c0.3,0.2,0.4,0.4,0.4,0.4
		s-0.2,0.2-0.4,0.4c-0.1,0.1-0.3,0.2-0.5,0.4c-0.1,0.1-0.2,0.1-0.3,0.2c-0.1,0.1-0.2,0-0.3,0c-0.9,0-2.2,0-3.4,0s-2.5,0-3.4,0
		c-0.1,0-0.2,0.1-0.3,0c-0.1-0.1-0.2-0.2-0.3-0.2c-0.2-0.1-0.4-0.3-0.5-0.4C184.2,83.2,184,83,184,83z"/>
</g>
<g>
	<line class="st0" x1="184" y1="71" x2="194" y2="71"/>
	<path class="st0" d="M184,71c0,0,0.2-0.2,0.4-0.4c0.1-0.1,0.3-0.3,0.5-0.4c0.1-0.1,0.2-0.1,0.3-0.2c0.1-0.1,0.2,0,0.3,0
		c0.9,0,2.2,0,3.4,0s2.5,0,3.4,0c0.1,0,0.2-0.1,0.3,0c0.1,0.1,0.2,0.2,0.3,0.2c0.2,0.1,0.4,0.3,0.5,0.4c0.3,0.2,0.4,0.4,0.4,0.4
		s-0.2,0.2-0.4,0.4c-0.1,0.1-0.3,0.2-0.5,0.4c-0.1,0.1-0.2,0.1-0.3,0.2c-0.1,0.1-0.2,0-0.3,0c-0.9,0-2.2,0-3.4,0s-2.5,0-3.4,0
		c-0.1,0-0.2,0.1-0.3,0c-0.1-0.1-0.2-0.2-0.3-0.2c-0.2-0.1-0.4-0.3-0.5-0.4C184.2,71.2,184,71,184,71z"/>
</g>
<g>
	<line class="st0" x1="184" y1="59" x2="194" y2="59"/>
	<path class="st0" d="M184,59c0,0,0.2-0.2,0.4-0.4c0.1-0.1,0.3-0.3,0.5-0.4c0.1-0.1,0.2-0.1,0.3-0.2c0.1-0.1,0.2,0,0.3,0
		c0.9,0,2.2,0,3.4,0s2.5,0,3.4,0c0.1,0,0.2-0.1,0.3,0c0.1,0.1,0.2,0.2,0.3,0.2c0.2,0.1,0.4,0.3,0.5,0.4c0.3,0.2,0.4,0.4,0.4,0.4
		s-0.2,0.2-0.4,0.4c-0.1,0.1-0.3,0.2-0.5,0.4c-0.1,0.1-0.2,0.1-0.3,0.2c-0.1,0.1-0.2,0-0.3,0c-0.9,0-2.2,0-3.4,0s-2.5,0-3.4,0
		c-0.1,0-0.2,0.1-0.3,0c-0.1-0.1-0.2-0.2-0.3-0.2c-0.2-0.1-0.4-0.3-0.5-0.4C184.2,59.2,184,59,184,59z"/>
</g>
<g>
	<line class="st0" x1="184" y1="47" x2="194" y2="47"/>
	<path class="st0" d="M184,47c0,0,0.2-0.2,0.4-0.4c0.1-0.1,0.3-0.3,0.5-0.4c0.1-0.1,0.2-0.1,0.3-0.2c0.1-0.1,0.2,0,0.3,0
		c0.9,0,2.2,0,3.4,0s2.5,0,3.4,0c0.1,0,0.2-0.1,0.3,0c0.1,0.1,0.2,0.2,0.3,0.2c0.2,0.1,0.4,0.3,0.5,0.4c0.3,0.2,0.4,0.4,0.4,0.4
		s-0.2,0.2-0.4,0.4c-0.1,0.1-0.3,0.2-0.5,0.4c-0.1,0.1-0.2,0.1-0.3,0.2c-0.1,0.1-0.2,0-0.3,0c-0.9,0-2.2,0-3.4,0s-2.5,0-3.4,0
		c-0.1,0-0.2,0.1-0.3,0c-0.1-0.1-0.2-0.2-0.3-0.2c-0.2-0.1-0.4-0.3-0.5-0.4C184.2,47.2,184,47,184,47z"/>
</g>
</svg>
