<svg xmlns="http://www.w3.org/2000/svg" width="300" height="200" viewBox="0 0 300 200">
  <defs>
    <style>
      .cls-1, .cls-3 {
        fill: #fff;
        stroke: #000;
        stroke-miterlimit: 10;
      }

      .cls-1 {
        stroke-width: 3.48px;
      }

      .cls-2 {
        fill: #e6e6e6;
      }

      .cls-3 {
        stroke-width: 2.74px;
      }

      .cls-4 {
        font-size: 36px;
        font-family: LemonMilk, Lemon/Milk;
      }
    </style>
  </defs>
  <title>hpbar</title>
  <g id="hp_bar" data-name="hp bar">
    <path class="cls-1" d="M280.9,82H21.1c-6.24,0-11.35,4.33-11.35,9.62v34.59c0,5.29,5.11,9.62,11.35,9.62,0,0,76.9-1.27,129.9,24.16,53-25.43,129.9-24.16,129.9-24.16,6.24,0,11.35-4.33,11.35-9.62V91.62C292.25,86.33,287.14,82,280.9,82Z"/>
    <g id="Layer_8" data-name="Layer 8">
      <rect class="cls-2" x="148" y="88" width="7" height="63" rx="3.23" ry="3.23"/>
      <rect class="cls-2" x="164" y="88" width="7" height="57.89" rx="3.1" ry="3.1"/>
      <rect class="cls-2" x="180" y="88" width="7" height="53.64" rx="2.98" ry="2.98"/>
      <rect class="cls-2" x="196" y="88" width="7" height="49.38" rx="2.86" ry="2.86"/>
      <rect class="cls-2" x="212" y="88" width="7" height="46.82" rx="2.78" ry="2.78"/>
      <rect class="cls-2" x="228" y="88" width="7" height="44.27" rx="2.71" ry="2.71"/>
      <rect class="cls-2" x="244" y="88" width="7" height="42.57" rx="2.65" ry="2.65"/>
      <rect class="cls-2" x="260" y="88" width="7" height="41.72" rx="2.63" ry="2.63"/>
      <rect class="cls-2" x="276" y="88" width="7" height="40.86" rx="2.6" ry="2.6"/>
      <rect class="cls-2" x="132" y="88" width="7" height="57.89" rx="3.1" ry="3.1"/>
      <rect class="cls-2" x="116" y="88" width="7" height="53.64" rx="2.98" ry="2.98"/>
      <rect class="cls-2" x="100" y="88" width="7" height="49.38" rx="2.86" ry="2.86"/>
      <rect class="cls-2" x="84" y="88" width="7" height="46.82" rx="2.78" ry="2.78"/>
      <rect class="cls-2" x="68" y="88" width="7" height="44.27" rx="2.71" ry="2.71"/>
      <rect class="cls-2" x="52" y="88" width="7" height="42.57" rx="2.65" ry="2.65"/>
      <rect class="cls-2" x="36" y="88" width="7" height="41.72" rx="2.63" ry="2.63"/>
      <rect class="cls-2" x="20" y="88" width="7" height="40.86" rx="2.6" ry="2.6"/>
    </g>
    <g id="Layer_10" data-name="Layer 10">
      <rect class="cls-3" x="61.5" y="95.5" width="178" height="29" rx="7.81" ry="7.81"/>
    </g>
    <g id="Layer_9" data-name="Layer 9">
      <text class="cls-4" transform="translate(11.08 124.28)">28</text>
      <text class="cls-4" transform="translate(245.19 124.28)">30</text>
    </g>
  </g>
</svg>
