<?xml version="1.0" encoding="utf-8"?>
<!-- Generator: Adobe Illustrator 19.2.1, SVG Export Plug-In . SVG Version: 6.00 Build 0)  -->
<svg version="1.1" xmlns="http://www.w3.org/2000/svg" xmlns:xlink="http://www.w3.org/1999/xlink" x="0px" y="0px"
	 viewBox="0 0 300 200" style="enable-background:new 0 0 300 200;" xml:space="preserve">
<style type="text/css">
	.st0{fill:none;stroke:#ED1C24;stroke-width:5;stroke-miterlimit:10;}
	.st1{fill:#FFFFFF;stroke:#000000;stroke-width:2;stroke-miterlimit:10;}
	.st2{fill:#E6E6E6;stroke:#000000;stroke-width:2;stroke-miterlimit:10;}
</style>
<g id="Layer_1">
	<polygon class="st0" points="248,84.1 109.9,84.1 90.9,112.9 229.1,112.9 	"/>
</g>
<g id="Layer_2">
	<polygon class="st2" points="244,106 236,106 236,98 230,98 230,106 222,106 222,112 230,112 230,120 236,120 236,112 244,112 	"/>
	<polygon class="st2" points="101.5,75.7 99.3,81.9 105.2,84.6 99,86.6 100.6,92.9 95.2,89.4 91.2,94.6 90.6,88.1 84.1,88.2 
		88.7,83.7 84.6,78.7 91,79.5 92.4,73.1 95.7,78.7 	"/>
</g>
</svg>
