<?xml version="1.0" encoding="utf-8"?>
<!-- Generator: Adobe Illustrator 19.2.1, SVG Export Plug-In . SVG Version: 6.00 Build 0)  -->
<svg version="1.1" xmlns="http://www.w3.org/2000/svg" xmlns:xlink="http://www.w3.org/1999/xlink" x="0px" y="0px"
	 viewBox="0 0 500 100" style="enable-background:new 0 0 500 100;" xml:space="preserve">
<style type="text/css">
	.st0{fill:#615878;}
	.st1{fill:#05002E;}
	.st2{fill:url(#SVGID_1_);}
	.st3{fill:none;}
	.st4{display:none;}
	.st5{display:inline;fill:#E6E6E6;stroke:#000000;stroke-width:4;stroke-miterlimit:10;}
	.st6{display:inline;fill:none;}
	.st7{display:inline;fill:#AA0009;}
	.st8{font-family:'Eboracum';}
	.st9{font-size:72px;}
</style>
<g id="Layer_1">
	<path class="st0" d="M16.2-3l4.6,6.4c2.4-1.3,5.4-1.9,9.1-1.6c17.9,1.4,43.7,22.9,57.5,47.9c12.4,22.5,11,40.5-2.4,42.8l4.6,6.7
		c15-2.9,16.4-23.8,2.3-49.3C76.2,21.3,46.8-3,26.3-5h0C22.3-5,18.9-4.4,16.2-3z"/>
	<polygon class="st1" points="359.5,79.7 53,79.7 53,92 348.9,92 	"/>
	<radialGradient id="SVGID_1_" cx="38.25" cy="42" r="47.4032" fx="27.4574" fy="36.0296" gradientUnits="userSpaceOnUse">
		<stop  offset="0" style="stop-color:#8C7FAC"/>
		<stop  offset="1" style="stop-color:#00062A"/>
	</radialGradient>
	<circle class="st2" cx="53" cy="50" r="42"/>
	<path class="st3" d="M18,44.2C5.3,21.3,5.2,2.6,16.2-3l-1.9-2.6l-25-2L46.6,96.1l37,2.9C63.2,97.5,33.8,72.9,18,44.2z"/>
	<path class="st3" d="M26.3-4.7l-12-0.9L16.2-3C18.9-4.4,22.3-5.1,26.3-4.7z"/>
	<path class="st3" d="M22.5,44.6c13.8,25,39.6,46.5,57.5,47.9c1.8,0.1,3.5,0.1,5-0.2L20.9,3.4C11.4,8.5,11.5,24.7,22.5,44.6z"/>
	<path class="st3" d="M87.5,49.7C73.7,24.7,47.8,3.2,29.9,1.8c-3.6-0.3-6.7,0.3-9.1,1.6L85,92.3C98.4,90,99.9,72.2,87.5,49.7z"/>
	<path class="st3" d="M83.7,99.1l6.6,0.5l-0.6-0.8C87.9,99.1,85.9,99.2,83.7,99.1z"/>
	<path class="st3" d="M63.4-1.8l-37-2.9C46.8-3.1,76.2,21.5,92,50.1c14.1,25.5,12.6,45.7-2.3,48.7l0.6,0.8l30.4,2.4L63.4-1.8z"/>
	<path class="st0" d="M89.7,99.2L85,92.6c-1.5,0.3-3.2,0.2-5,0.1c-17.9-1.4-43.7-23-57.5-48c-11-19.9-11.1-36.2-1.7-41.2L16.2-3
		C5.2,2.6,5.3,21.8,18,44.7C33.8,73.3,63.2,98,83.7,100h0C85.9,100,87.9,99.6,89.7,99.2z"/>
</g>
</svg>
