<?xml version="1.0" encoding="utf-8"?>
<!-- Generator: Adobe Illustrator 19.2.1, SVG Export Plug-In . SVG Version: 6.00 Build 0)  -->
<svg version="1.1" xmlns="http://www.w3.org/2000/svg" xmlns:xlink="http://www.w3.org/1999/xlink" x="0px" y="0px"
	 viewBox="0 0 100 100" style="enable-background:new 0 0 100 100;" xml:space="preserve">
<style type="text/css">
	.st1{display:inline;fill:#FFFFFF;stroke:#000000;stroke-width:4;stroke-miterlimit:10;}
	.st2{fill:#FFFFFF;stroke:#000000;stroke-width:3;stroke-linecap:round;stroke-miterlimit:10;}
	.st3{fill:none;stroke:#000000;stroke-width:3;stroke-linecap:round;stroke-miterlimit:10;}
	.st4{fill:none;stroke:#000000;stroke-width:2;stroke-linecap:round;stroke-miterlimit:10;}
</style>
<g id="Layer_2">
	<g>
		<g>
			<path d="M13.1,70l2.8-5.3c1.2-2.3,4-3.1,6.2-1.9c2.1,1.1,3,3.6,2.2,5.7L22.2,74c-1,2.6-3.8,3.9-6.4,3c-2.6-1-3.9-3.8-3-6.4
				C12.9,70.4,13,70.1,13.1,70z"/>
			<path d="M23.3,53.1c0,0,0.5-0.7,1.3-1.7c0.8-1,1.9-2.3,3-3.6c2.2-2.6,4.7-4.9,4.7-4.9c1.2-1.1,3-1.1,4.1,0.1
				c1,1.1,1.1,2.7,0.1,3.9c0,0-2,2.4-3.7,5c-0.9,1.3-1.7,2.6-2.3,3.6c-0.6,1-1,1.7-1,1.7l0,0c-1.1,1.8-3.4,2.4-5.2,1.4
				c-1.8-1.1-2.4-3.4-1.4-5.2C23.1,53.3,23.2,53.2,23.3,53.1z"/>
			<path d="M43.2,34.7c0,0,0.2-0.1,0.5-0.3c0.3-0.2,0.8-0.4,1.3-0.8c1.1-0.6,2.6-1.4,4.2-2c1.6-0.7,3.2-1.2,4.4-1.6
				c1.2-0.4,2-0.6,2-0.6l0,0c0.7-0.2,1.3,0.3,1.5,0.9c0.1,0.6-0.2,1.2-0.8,1.4c0,0-0.7,0.3-1.8,0.8c-1.1,0.5-2.5,1.2-3.8,2
				c-1.4,0.8-2.7,1.7-3.6,2.4c-0.5,0.4-0.9,0.6-1.1,0.8c-0.3,0.2-0.4,0.3-0.4,0.3c-0.9,0.7-2.2,0.5-2.9-0.4
				c-0.7-0.9-0.5-2.2,0.4-2.9C43,34.7,43.1,34.7,43.2,34.7z"/>
			<path d="M68.9,29c0,0,0.4,0.1,0.9,0.2c0.6,0.1,1.3,0.3,2,0.6c1.4,0.5,2.8,1.1,2.8,1.1s-1.4-0.5-2.9-0.8c-1.5-0.3-2.9-0.4-2.9-0.4
				c-0.2,0-0.4-0.2-0.4-0.4C68.4,29.1,68.6,28.9,68.9,29C68.9,28.9,68.9,28.9,68.9,29z"/>
		</g>
	</g>
</g>
<g id="Layer_3">
	<circle class="st2" cx="74.6" cy="29.9" r="9.9"/>
	<line class="st3" x1="59.6" y1="29.9" x2="89.6" y2="29.9"/>
	<line class="st4" x1="74.6" y1="44.9" x2="74.6" y2="14.9"/>
</g>
</svg>
